<svg width="3146" height="1269" xmlns="http://www.w3.org/2000/svg" xmlns:xlink="http://www.w3.org/1999/xlink" xml:space="preserve" overflow="hidden"><g transform="translate(-51 -349)"><rect x="78" y="353" width="1501" height="1262" fill="#F9CCCC"/><g><g><g><path d="M98.2746 57.6666 117.333 53.3879 116.164 48.1879 97.1999 52.4439 66.2093 22.336 66.2093 12.1333 60.8759 12.1333 60.8759 22.4093 25.568 51.4666 10.9213 48.1853 9.75199 53.3853 24.4 56.6759 37.9653 97.1999 28.424 111.88 32.896 114.787 42.4133 100.14 78.7053 90.9572 94.1906 114.787 98.6666 111.88 83.0666 87.8892ZM78.0239 80.1212 67.8666 64.4933 88.1786 59.9333ZM87.8666 54.5333 66.2093 59.3999 66.2093 33.492ZM60.8759 32.7693 60.8759 59.3999 35.4586 53.6933ZM33.516 58.7226 59.2173 64.4933 43.532 88.6266ZM48.832 90.2666 63.5426 67.6253 74.0986 83.8666Z" transform="matrix(1 0 0 1.03125 817 389)"/></g></g></g><g><g><g><path d="M42.6666 82.6666C42.6666 88.5576 37.891 93.3332 32 93.3332 26.1089 93.3332 21.3333 88.5576 21.3333 82.6666 21.3333 76.7756 26.1089 71.9999 32 71.9999 37.891 71.9999 42.6666 76.7756 42.6666 82.6666Z" transform="matrix(1 0 0 1.03125 1366 385)"/><path d="M106.667 82.6666C106.667 88.5576 101.891 93.3332 95.9999 93.3332 90.1089 93.3332 85.3332 88.5576 85.3332 82.6666 85.3332 76.7756 90.1089 71.9999 95.9999 71.9999 101.891 71.9999 106.667 76.7756 106.667 82.6666Z" transform="matrix(1 0 0 1.03125 1366 385)"/><path d="M51.9999 55.9999 51.9999 40 70.2666 40C71.7333 40 73.0666 40.5333 73.9999 41.6L88.3999 55.9999 51.9999 55.9999ZM46.6666 55.9999 12.9333 55.9999 27.3333 41.6C28.4 40.5333 29.7333 40 31.0666 40L46.6666 40 46.6666 55.9999ZM109.333 55.9999 98.2666 55.9999C96.7999 55.9999 95.4666 55.4666 94.5332 54.3999L77.7333 37.7333C75.7333 35.7333 73.0666 34.6666 70.1333 34.6666L31.0666 34.6666C28.2666 34.6666 25.4666 35.7333 23.4666 37.7333L6.93333 54.3999C5.86666 55.4666 5.33333 56.7999 5.33333 58.2666L5.33333 71.9999C5.33333 77.8666 10.1333 82.6666 16 82.6666L17.3333 82.6666C17.3333 74.5333 23.8666 67.9999 32 67.9999 40.1333 67.9999 46.6666 74.5333 46.6666 82.6666L81.3333 82.6666C81.3333 74.5333 87.8666 67.9999 95.9999 67.9999 104.133 67.9999 110.667 74.5333 110.667 82.6666L117.333 82.6666C120.267 82.6666 122.667 80.2666 122.667 77.3333L122.667 69.3333C122.667 61.9999 116.667 55.9999 109.333 55.9999Z" transform="matrix(1 0 0 1.03125 1366 385)"/></g></g></g><g><g><g><path d="M42.6666 55.9999C42.6666 44.2666 52.2666 34.6666 63.9999 34.6666 75.7333 34.6666 85.3332 44.2666 85.3332 55.9999 85.3332 67.7333 75.7333 77.3333 63.9999 77.3333 52.2666 77.3333 42.6666 67.7333 42.6666 55.9999ZM63.9999 24C65.4666 24 66.6666 25.2 66.6666 26.6666 66.6666 28.1333 65.4666 29.3333 63.9999 29.3333 62.5333 29.3333 61.3333 28.1333 61.3333 26.6666 61.3333 25.2 62.5333 24 63.9999 24ZM91.3332 100.8 74.6666 98.6666 74.6666 91.7332C90.1332 87.1999 101.333 72.9333 101.333 55.9999 101.333 35.3333 84.6666 18.6666 63.9999 18.6666 43.3333 18.6666 26.6666 35.3333 26.6666 55.9999 26.6666 72.9333 37.8666 87.1999 53.3333 91.7332L53.3333 98.6666 36.6666 100.8C34 101.2 32 103.467 32 106.133L32 109.333 95.9999 109.333 95.9999 106C95.9999 103.333 93.9999 101.067 91.3332 100.8Z" transform="matrix(1 0 0 1.03125 543 385)"/><path d="M63.9999 63.9999C59.5999 63.9999 55.9999 60.3999 55.9999 55.9999 55.9999 51.5999 59.5999 48 63.9999 48 68.3999 48 71.9999 51.5999 71.9999 55.9999 71.9999 60.3999 68.3999 63.9999 63.9999 63.9999ZM63.9999 40C55.1999 40 48 47.2 48 55.9999 48 64.7999 55.1999 71.9999 63.9999 71.9999 72.7999 71.9999 79.9999 64.7999 79.9999 55.9999 79.9999 47.2 72.7999 40 63.9999 40Z" transform="matrix(1 0 0 1.03125 543 385)"/></g></g></g><g><g><g><path d="M88.1332 105.867 99.4666 94.5332 103.2 98.2666 91.8666 109.6 88.1332 105.867ZM84.2666 79.4666 87.9999 83.1999 76.6666 94.5332 72.9333 90.7999 84.2666 79.4666ZM98.5332 65.3333 102.267 69.0666 91.8666 79.4666 88.1332 75.7333 98.5332 65.3333ZM95.5999 90.7999 84.2666 102.133 80.5332 98.3999 91.8666 87.0666 95.5999 90.7999ZM95.5999 83.1999 106 72.7999 109.733 76.5333 99.3332 86.9332 95.5999 83.1999ZM106.933 94.5332 103.2 90.7999 113.6 80.3999 117.333 84.1332 106.933 94.5332ZM30.5333 101.2 36.2666 95.4666 42 101.2 30.5333 101.2ZM32.5333 91.7332 26.6666 97.5999 26.6666 85.8666 32.5333 91.7332ZM37.2 54.9333 33.4666 51.1999 44.7999 39.8666 48.5333 43.6 37.2 54.9333ZM29.6 24.8 33.3333 28.5333 22 39.8666 18.2666 36.1333 29.6 24.8ZM47.6 14.4 37.2 24.8 33.4666 21.0666 43.7333 10.6667 47.6 14.4ZM40.9333 36.1333 29.6 47.4666 25.8666 43.7333 37.2 32.4 40.9333 36.1333ZM40.9333 28.5333 51.3333 18.1333 55.0666 21.8666 44.6666 32.2666 40.9333 28.5333ZM52.2666 39.8666 48.5333 36.1333 58.9333 25.7333 62.6666 29.4666 52.2666 39.8666ZM121.067 80.3999 102.267 61.5999C101.2 60.5333 99.8666 59.9999 98.5332 59.9999 97.1999 59.9999 95.7332 60.5333 94.7999 61.5999L84.2666 71.9999 80.5332 68.2666 93.7332 55.0666C94.7999 53.9999 95.3332 52.6666 95.3332 51.3333 95.3332 49.8666 94.7999 48.5333 93.7332 47.6L91.5999 45.3333 96.5332 42.6666 85.3332 31.4666 82.6666 36.4 80.5332 34.2666C79.4666 33.2 78.1332 32.6666 76.7999 32.6666 75.3333 32.6666 73.9999 33.2 73.0666 34.2666L59.8666 47.4666 55.9999 43.7333 66.3999 33.3333C67.4666 32.2666 67.9999 30.9333 67.9999 29.6 67.9999 28.1333 67.4666 26.8 66.3999 25.8666L47.6 6.93333C46.5333 5.86666 45.2 5.33333 43.7333 5.33333 42.2666 5.33333 40.9333 5.86666 40 6.93333L14.5333 32.4C13.6 33.3333 13.0667 34.6666 13.0667 36.1333 13.0667 37.6 13.6 38.9333 14.6667 39.8666L33.4666 58.6666C34.5333 59.7333 35.8666 60.2666 37.2 60.2666 38.5333 60.2666 40 59.7333 40.9333 58.6666L52.2666 47.3333 55.9999 51.0666 42.8 64.2666C41.7333 65.3333 41.2 66.6666 41.2 67.9999 41.2 69.4666 41.7333 70.7999 42.8 71.7333L46.6666 75.4666 42.6666 79.4666C33.7333 72.3999 22.9333 70.7999 17.3333 76.5333L21.3333 80.3999 21.2 100.4C18.5333 100.8 16.5333 103.2 16.6666 106 16.8 108.8 19.0666 110.933 21.8666 110.933 24.6666 111.067 26.9333 108.933 27.3333 106.267L47.3333 106.4 51.3333 110.4C56.9333 104.8 55.4666 93.9999 48.3999 85.0666L52.3999 81.0666 55.9999 85.0666C57.0666 86.1332 58.3999 86.6666 59.7333 86.6666 61.1999 86.6666 62.5333 86.1332 63.4666 85.0666L76.6666 71.8666 80.3999 75.5999 69.0666 86.9332C67.9999 87.9999 67.4666 89.3332 67.4666 90.6666 67.4666 91.9999 67.9999 93.4666 69.0666 94.3999L87.9999 113.2C89.0666 114.267 90.3999 114.8 91.7332 114.8 93.1999 114.8 94.5332 114.267 95.4666 113.2L121.067 87.9999C122.133 86.9332 122.667 85.5999 122.667 84.2666 122.667 82.7999 122.133 81.4666 121.067 80.3999Z" transform="matrix(1 0 0 1.03125 254 385)"/></g></g></g><g><g><g><path d="M63.9999 71.9999C59.5999 71.9999 55.9999 68.3999 55.9999 63.9999 55.9999 59.5999 59.5999 55.9999 63.9999 55.9999 68.3999 55.9999 71.9999 59.5999 71.9999 63.9999 71.9999 68.3999 68.3999 71.9999 63.9999 71.9999ZM109.333 62.2666 101.067 59.7333 80.7999 53.3333 87.3332 40.6666 74.7999 47.2 68.2666 26.8 65.5999 18.5333 63.9999 13.3333 62.2666 18.6666 59.7333 26.9333 53.4666 47.2 40.8 40.6666 47.3333 53.1999 27.0666 59.5999 18.6666 62.1333 13.3333 63.8666 18.6666 65.5999 26.8 68.2666 47.2 74.6666 40.6666 87.1999 53.1999 80.6666 59.5999 100.933 62.1333 109.2 63.8666 114.533 65.5999 109.2 68.2666 100.933 74.7999 80.5332 87.3332 87.0666 80.6666 74.5333 100.933 68.1333 109.2 65.4666 114.533 63.7333 109.333 62.2666Z" transform="matrix(1 0 0 1.03125 1090 391)"/><path d="M99.8666 74.1333C98.5332 78.7999 96.2666 83.1999 93.1999 87.0666 91.4666 89.3332 89.3332 91.3332 87.1999 93.1999 83.3332 96.2666 78.9333 98.5332 74.1333 99.8666L73.3333 102.667 71.4666 108.667C80.2666 107.2 88.3999 103.2 94.9332 97.0666 95.7332 96.2666 96.5332 95.4666 97.3332 94.6666 103.333 88.1332 107.333 79.9999 108.8 71.3333L102.667 73.3333 99.8666 74.1333Z" transform="matrix(1 0 0 1.03125 1090 391)"/><path d="M74.2666 28.1333C78.9333 29.4666 83.3332 31.7333 87.0666 34.8 89.3332 36.5333 91.3332 38.6666 93.1999 40.9333 96.2666 44.7999 98.5332 49.0666 99.8666 53.8666L102.667 54.6666 108.667 56.5333C107.2 47.8666 103.2 39.7333 97.1999 33.2 96.3999 32.4 95.5999 31.6 94.7999 30.8 88.2666 24.8 80.2666 20.8 71.4666 19.3333L73.3333 25.3333 74.2666 28.1333Z" transform="matrix(1 0 0 1.03125 1090 391)"/><path d="M28.1333 53.5999C29.4666 48.9333 31.7333 44.5333 34.8 40.6666 36.5333 38.4 38.6666 36.4 40.9333 34.5333 44.7999 31.4666 49.0666 29.3333 53.7333 28L54.6666 25.3333 56.5333 19.3333C47.8666 20.8 39.7333 24.6666 33.2 30.6666 32.4 31.4666 31.6 32.2666 30.8 33.0666 24.8 39.6 20.6666 47.7333 19.2 56.3999L25.2 54.5333 28.1333 53.5999Z" transform="matrix(1 0 0 1.03125 1090 391)"/><path d="M53.7333 99.8666C49.0666 98.5332 44.6666 96.2666 40.8 93.1999 38.5333 91.4666 36.5333 89.3332 34.8 87.1999 31.7333 83.3332 29.4666 78.9333 28.1333 74.2666L25.3333 73.3333 19.3333 71.4666C20.8 80.2666 24.8 88.3999 30.8 94.7999 31.6 95.5999 32.4 96.3999 33.2 97.1999 39.7333 103.2 47.8666 107.2 56.5333 108.667L54.5333 102.667 53.7333 99.8666Z" transform="matrix(1 0 0 1.03125 1090 391)"/></g></g></g><rect x="814.5" y="612.5" width="680" height="82.9998" stroke="#530505" stroke-width="4.58333" stroke-miterlimit="8" fill="#C81919"/><text fill="#FFFFFF" font-family="Calibri,Calibri_MSFontService,sans-serif" font-weight="400" font-size="32" transform="matrix(1 0 0 1 1052.04 664)">ros2_socketcan</text><rect x="814.5" y="1182.5" width="680" height="164" stroke="#530505" stroke-width="4.58333" stroke-miterlimit="8" fill="#C81919"/><text fill="#FFFFFF" font-family="Calibri,Calibri_MSFontService,sans-serif" font-weight="400" font-size="46" transform="matrix(1 0 0 1 1050.56 1280)">can_parser</text><rect x="188.5" y="1490.5" width="1306" height="74.9999" stroke="#530505" stroke-width="4.58333" stroke-miterlimit="8" fill="#C81919"/><text fill="#FFFFFF" font-family="Calibri,Calibri_MSFontService,sans-serif" font-weight="400" font-size="62" transform="matrix(1 0 0 1 418.411 1548)">ONLINE Perception &amp; Localization</text><path d="M608.146 516.997 608.342 589.221 606.05 589.228 605.854 517.003ZM620.934 584.604 607.258 612.141 593.434 584.678Z" fill="#C81919"/><path d="M1155.15 523 1155.16 589.081 1152.87 589.081 1152.85 523ZM1167.77 584.494 1154.02 611.998 1140.27 584.501Z" fill="#C81919"/><path d="M882.146 521 882.146 584.92 879.854 584.92 879.854 521ZM894.75 580.337 881 607.837 867.25 580.337Z" fill="#C81919"/><path d="M879.146 699 879.146 1159.37 876.854 1159.37 876.854 699ZM891.75 1154.79 878 1182.29 864.25 1154.79Z" fill="#C81919"/><path d="M1.14583-0.000102756 1.18745 464.026-1.10422 464.026-1.14583 0.000102756ZM13.7912 459.442 0.043668 486.943-13.7088 459.444Z" fill="#C81919" transform="matrix(-1 0 0 1 1154.04 695)"/><path d="M1430.15 699 1430.15 1159.71 1427.85 1159.71 1427.85 699ZM1442.75 1155.13 1429 1182.63 1415.25 1155.13Z" fill="#C81919"/><path d="M608.146 695 608.146 1159.17 605.855 1159.17 605.854 695ZM620.75 1154.58 607 1182.08 593.25 1154.58Z" fill="#C81919"/><path d="M1.14583-0.000123362 1.19606 466.492-1.09561 466.492-1.14583 0.000123362ZM13.7997 461.907 0.0526903 489.409-13.7003 461.91Z" fill="#C81919" transform="matrix(-1 0 0 1 318.053 693)"/><path d="M1431.15 517 1431.15 586.924 1428.85 586.924 1428.85 517ZM1443.75 582.341 1430 609.841 1416.25 582.341Z" fill="#C81919"/><path d="M1.14583-7.57199e-05 1.15045 69.9239-1.14121 69.9241-1.14583 7.57199e-05ZM13.7543 65.3397 0.00613517 92.8407-13.7457 65.3416Z" fill="#C81919" transform="matrix(-1 0 0 1 318.006 517)"/><rect x="476.5" y="612.5" width="262" height="82.9998" stroke="#530505" stroke-width="4.58333" stroke-miterlimit="8" fill="#C81919"/><text fill="#FFFFFF" font-family="Calibri,Calibri_MSFontService,sans-serif" font-weight="400" font-size="32" transform="matrix(1 0 0 1 520.996 664)">zed_wrapper</text><rect x="188.5" y="610.5" width="261" height="82.9998" stroke="#530505" stroke-width="4.58333" stroke-miterlimit="8" fill="#C81919"/><text fill="#FFFFFF" font-family="Calibri,Calibri_MSFontService,sans-serif" font-weight="400" font-size="32" transform="matrix(1 0 0 1 237.787 662)">ublox_dgnss</text><rect x="188.5" y="1182.5" width="261" height="164" stroke="#530505" stroke-width="4.58333" stroke-miterlimit="8" fill="#C81919"/><text fill="#FFFFFF" font-family="Calibri,Calibri_MSFontService,sans-serif" font-weight="400" font-size="46" transform="matrix(1 0 0 1 266.094 1252)">gnss</text><text fill="#FFFFFF" font-family="Calibri,Calibri_MSFontService,sans-serif" font-weight="400" font-size="46" transform="matrix(1 0 0 1 347.448 1252)">_</text><text fill="#FFFFFF" font-family="Calibri,Calibri_MSFontService,sans-serif" font-weight="400" font-size="46" transform="matrix(1 0 0 1 272.671 1307)">rules</text><rect x="476.5" y="1182.5" width="262" height="164" stroke="#530505" stroke-width="4.58333" stroke-miterlimit="8" fill="#C81919"/><text fill="#FFFFFF" font-family="Calibri,Calibri_MSFontService,sans-serif" font-weight="400" font-size="46" transform="matrix(1 0 0 1 526.152 1252)">camera_</text><text fill="#FFFFFF" font-family="Calibri,Calibri_MSFontService,sans-serif" font-weight="400" font-size="46" transform="matrix(1 0 0 1 561.375 1307)">rules</text><text font-family="Calibri,Calibri_MSFontService,sans-serif" font-weight="400" font-size="41" transform="matrix(1 0 0 1 91.2444 929)">ros2 topic</text><path d="M319.146 1346 319.146 1466.77 316.854 1466.77 316.854 1346ZM331.75 1462.18 318 1489.68 304.25 1462.18Z" fill="#C81919"/><path d="M608.146 1346 608.146 1466.77 605.855 1466.77 605.854 1346ZM620.75 1462.18 607 1489.68 593.25 1462.18Z" fill="#C81919"/><path d="M1.14583-2.87803e-06 1.14614 120.766-1.14553 120.766-1.14583 2.87803e-06ZM13.7503 116.182 0.000360892 143.682-13.7497 116.182Z" fill="#C81919" transform="matrix(-1 0 0 1 1154 1346)"/><text font-family="Calibri,Calibri_MSFontService,sans-serif" font-weight="400" font-size="41" transform="matrix(1 0 0 1 83.9367 1431)">ros2 topic</text><rect x="1817.5" y="992.5" width="1330" height="462" stroke="#530505" stroke-width="4.58333" stroke-miterlimit="8" fill="#C81919"/><text fill="#FFFFFF" font-family="Calibri,Calibri_MSFontService,sans-serif" font-weight="400" font-size="46" transform="matrix(1 0 0 1 2367.55 1239)">data_export</text><rect x="1684.5" y="351.5" width="1510" height="1262" stroke="#530505" stroke-width="4.58333" stroke-miterlimit="8" fill="none"/><g><g><g><path d="M99.0424 58.1171 118.25 53.805 117.071 48.5644 97.9593 52.8537 66.7265 22.5105 66.7265 12.2281 61.3515 12.2281 61.3515 22.5844 25.7677 51.8687 11.0066 48.5617 9.82818 53.8024 24.5906 57.1187 38.2619 97.9593 28.646 112.754 33.153 115.683 42.7447 100.922 79.3202 91.6679 94.9265 115.683 99.4374 112.754 83.7156 88.5759ZM78.6335 80.7472 68.3968 64.9971 88.8675 60.4015ZM88.5531 54.9593 66.7265 59.864 66.7265 33.7536ZM61.3515 33.0253 61.3515 59.864 35.7357 54.1128ZM33.7778 59.1814 59.6799 64.9971 43.8721 89.319ZM49.2135 90.9718 64.039 68.1536 74.6775 84.5218Z" transform="matrix(1.00775 0 0 1 2461 421)"/></g></g></g><g><g><g><path d="M3061.33 499.958C3061.33 505.941 3056.48 510.792 3050.5 510.792 3044.52 510.792 3039.67 505.941 3039.67 499.958 3039.67 493.975 3044.52 489.125 3050.5 489.125 3056.48 489.125 3061.33 493.975 3061.33 499.958Z"/><path d="M3126.33 499.958C3126.33 505.941 3121.48 510.792 3115.5 510.792 3109.52 510.792 3104.67 505.941 3104.67 499.958 3104.67 493.975 3109.52 489.125 3115.5 489.125 3121.48 489.125 3126.33 493.975 3126.33 499.958Z"/><path d="M3070.81 472.875 3070.81 456.625 3089.36 456.625C3090.85 456.625 3092.21 457.167 3093.16 458.25L3107.78 472.875 3070.81 472.875ZM3065.4 472.875 3031.14 472.875 3045.76 458.25C3046.84 457.167 3048.2 456.625 3049.55 456.625L3065.4 456.625 3065.4 472.875ZM3129.04 472.875 3117.8 472.875C3116.31 472.875 3114.96 472.333 3114.01 471.25L3096.95 454.323C3094.92 452.292 3092.21 451.208 3089.23 451.208L3049.55 451.208C3046.71 451.208 3043.86 452.292 3041.83 454.323L3025.04 471.25C3023.96 472.333 3023.42 473.687 3023.42 475.177L3023.42 489.125C3023.42 495.083 3028.29 499.958 3034.25 499.958L3035.6 499.958C3035.6 491.698 3042.24 485.062 3050.5 485.062 3058.76 485.062 3065.4 491.698 3065.4 499.958L3100.6 499.958C3100.6 491.698 3107.24 485.062 3115.5 485.062 3123.76 485.062 3130.4 491.698 3130.4 499.958L3137.17 499.958C3140.15 499.958 3142.58 497.521 3142.58 494.542L3142.58 486.417C3142.58 478.969 3136.49 472.875 3129.04 472.875Z"/></g></g></g><g><g><g><path d="M2226.33 472.875C2226.33 460.958 2236.08 451.208 2248 451.208 2259.92 451.208 2269.67 460.958 2269.67 472.875 2269.67 484.792 2259.92 494.542 2248 494.542 2236.08 494.542 2226.33 484.792 2226.33 472.875ZM2248 440.375C2249.49 440.375 2250.71 441.594 2250.71 443.083 2250.71 444.573 2249.49 445.792 2248 445.792 2246.51 445.792 2245.29 444.573 2245.29 443.083 2245.29 441.594 2246.51 440.375 2248 440.375ZM2275.76 518.375 2258.83 516.208 2258.83 509.167C2274.54 504.562 2285.92 490.073 2285.92 472.875 2285.92 451.885 2268.99 434.958 2248 434.958 2227.01 434.958 2210.08 451.885 2210.08 472.875 2210.08 490.073 2221.46 504.562 2237.17 509.167L2237.17 516.208 2220.24 518.375C2217.53 518.781 2215.5 521.083 2215.5 523.792L2215.5 527.042 2280.5 527.042 2280.5 523.656C2280.5 520.948 2278.47 518.646 2275.76 518.375Z"/><path d="M2248 481C2243.53 481 2239.88 477.344 2239.88 472.875 2239.88 468.406 2243.53 464.75 2248 464.75 2252.47 464.75 2256.13 468.406 2256.13 472.875 2256.13 477.344 2252.47 481 2248 481ZM2248 456.625C2239.06 456.625 2231.75 463.937 2231.75 472.875 2231.75 481.812 2239.06 489.125 2248 489.125 2256.94 489.125 2264.25 481.812 2264.25 472.875 2264.25 463.937 2256.94 456.625 2248 456.625Z"/></g></g></g><g><g><g><path d="M1979.51 523.521 1991.02 512.01 1994.81 515.802 1983.3 527.312 1979.51 523.521ZM1975.58 496.708 1979.37 500.5 1967.86 512.01 1964.07 508.219 1975.58 496.708ZM1990.07 482.354 1993.86 486.146 1983.3 496.708 1979.51 492.917 1990.07 482.354ZM1987.09 508.219 1975.58 519.729 1971.79 515.937 1983.3 504.427 1987.09 508.219ZM1987.09 500.5 1997.66 489.937 2001.45 493.729 1990.89 504.292 1987.09 500.5ZM1998.6 512.01 1994.81 508.219 2005.37 497.656 2009.17 501.448 1998.6 512.01ZM1921.01 518.781 1926.83 512.958 1932.66 518.781 1921.01 518.781ZM1923.04 509.167 1917.08 515.125 1917.08 503.208 1923.04 509.167ZM1927.78 471.792 1923.99 468 1935.5 456.49 1939.29 460.281 1927.78 471.792ZM1920.06 441.187 1923.85 444.979 1912.34 456.49 1908.55 452.698 1920.06 441.187ZM1938.34 430.625 1927.78 441.187 1923.99 437.396 1934.42 426.833 1938.34 430.625ZM1931.57 452.698 1920.06 464.208 1916.27 460.417 1927.78 448.906 1931.57 452.698ZM1931.57 444.979 1942.14 434.417 1945.93 438.208 1935.36 448.771 1931.57 444.979ZM1943.08 456.49 1939.29 452.698 1949.85 442.135 1953.65 445.927 1943.08 456.49ZM2012.96 497.656 1993.86 478.562C1992.78 477.479 1991.43 476.937 1990.07 476.937 1988.72 476.937 1987.23 477.479 1986.28 478.562L1975.58 489.125 1971.79 485.333 1985.2 471.927C1986.28 470.844 1986.82 469.49 1986.82 468.135 1986.82 466.646 1986.28 465.292 1985.2 464.344L1983.03 462.042 1988.04 459.333 1976.67 447.958 1973.96 452.969 1971.79 450.802C1970.71 449.719 1969.35 449.177 1968 449.177 1966.51 449.177 1965.16 449.719 1964.21 450.802L1950.8 464.208 1946.87 460.417 1957.44 449.854C1958.52 448.771 1959.06 447.417 1959.06 446.062 1959.06 444.573 1958.52 443.219 1957.44 442.271L1938.34 423.042C1937.26 421.958 1935.91 421.417 1934.42 421.417 1932.93 421.417 1931.57 421.958 1930.62 423.042L1904.76 448.906C1903.81 449.854 1903.27 451.208 1903.27 452.698 1903.27 454.187 1903.81 455.542 1904.9 456.49L1923.99 475.583C1925.07 476.667 1926.43 477.208 1927.78 477.208 1929.14 477.208 1930.62 476.667 1931.57 475.583L1943.08 464.073 1946.87 467.865 1933.47 481.271C1932.39 482.354 1931.84 483.708 1931.84 485.062 1931.84 486.552 1932.39 487.906 1933.47 488.854L1937.4 492.646 1933.33 496.708C1924.26 489.531 1913.29 487.906 1907.6 493.729L1911.67 497.656 1911.53 517.969C1908.82 518.375 1906.79 520.812 1906.93 523.656 1907.06 526.5 1909.36 528.667 1912.21 528.667 1915.05 528.802 1917.35 526.635 1917.76 523.927L1938.07 524.062 1942.14 528.125C1947.82 522.437 1946.33 511.469 1939.16 502.396L1943.22 498.333 1946.87 502.396C1947.96 503.479 1949.31 504.021 1950.67 504.021 1952.16 504.021 1953.51 503.479 1954.46 502.396L1967.86 488.99 1971.66 492.781 1960.15 504.292C1959.06 505.375 1958.52 506.729 1958.52 508.083 1958.52 509.437 1959.06 510.927 1960.15 511.875L1979.37 530.969C1980.46 532.052 1981.81 532.594 1983.17 532.594 1984.66 532.594 1986.01 532.052 1986.96 530.969L2012.96 505.375C2014.04 504.292 2014.58 502.937 2014.58 501.583 2014.58 500.094 2014.04 498.739 2012.96 497.656Z"/></g></g></g><g><g><g><path d="M2803 495.125C2798.53 495.125 2794.88 491.469 2794.88 487 2794.88 482.531 2798.53 478.875 2803 478.875 2807.47 478.875 2811.12 482.531 2811.12 487 2811.12 491.469 2807.47 495.125 2803 495.125ZM2849.04 485.24 2840.65 482.667 2820.06 476.167 2826.7 463.302 2813.97 469.938 2807.33 449.219 2804.62 440.823 2803 435.542 2801.24 440.958 2798.67 449.354 2792.3 469.938 2779.44 463.302 2786.07 476.031 2765.49 482.531 2756.96 485.104 2751.54 486.865 2756.96 488.625 2765.22 491.333 2785.94 497.833 2779.3 510.563 2792.03 503.927 2798.53 524.51 2801.1 532.906 2802.86 538.323 2804.62 532.906 2807.33 524.51 2813.97 503.792 2826.7 510.427 2819.93 497.698 2840.51 491.198 2848.91 488.49 2854.32 486.729 2849.04 485.24Z"/><path d="M2839.43 497.292C2838.07 502.031 2835.77 506.5 2832.66 510.427 2830.9 512.729 2828.73 514.76 2826.56 516.656 2822.64 519.771 2818.17 522.073 2813.29 523.427L2812.48 526.271 2810.58 532.365C2819.52 530.875 2827.78 526.813 2834.42 520.583 2835.23 519.771 2836.04 518.958 2836.85 518.146 2842.95 511.51 2847.01 503.25 2848.5 494.448L2842.27 496.479 2839.43 497.292Z"/><path d="M2813.43 450.573C2818.17 451.927 2822.64 454.229 2826.43 457.344 2828.73 459.104 2830.76 461.271 2832.66 463.573 2835.77 467.5 2838.07 471.833 2839.43 476.708L2842.27 477.521 2848.36 479.417C2846.88 470.615 2842.81 462.354 2836.72 455.719 2835.91 454.906 2835.09 454.094 2834.28 453.281 2827.65 447.188 2819.52 443.125 2810.58 441.636L2812.48 447.729 2813.43 450.573Z"/><path d="M2766.57 476.438C2767.93 471.698 2770.23 467.229 2773.34 463.302 2775.1 461 2777.27 458.969 2779.57 457.073 2783.5 453.958 2787.83 451.792 2792.57 450.438L2793.52 447.729 2795.42 441.636C2786.61 443.125 2778.35 447.052 2771.72 453.146 2770.91 453.958 2770.09 454.771 2769.28 455.583 2763.19 462.219 2758.99 470.479 2757.5 479.281L2763.59 477.385 2766.57 476.438Z"/><path d="M2792.57 523.427C2787.83 522.073 2783.36 519.771 2779.44 516.656 2777.14 514.896 2775.1 512.729 2773.34 510.563 2770.23 506.635 2767.93 502.167 2766.57 497.427L2763.73 496.479 2757.64 494.583C2759.12 503.521 2763.19 511.781 2769.28 518.281 2770.09 519.094 2770.91 519.906 2771.72 520.719 2778.35 526.813 2786.61 530.875 2795.42 532.365L2793.39 526.271 2792.57 523.427Z"/></g></g></g><rect x="2458.5" y="640.5" width="690" height="82.0002" stroke="#530505" stroke-width="4.58333" stroke-miterlimit="8" fill="#C81919"/><text fill="#FFFFFF" font-family="Calibri,Calibri_MSFontService,sans-serif" font-weight="400" font-size="32" transform="matrix(1 0 0 1 2700.86 692)">ros2_socketcan</text><rect x="1809.5" y="1507.5" width="1346" height="74.0002" stroke="#530505" stroke-width="4.58333" stroke-miterlimit="8" fill="#C81919"/><text fill="#FFFFFF" font-family="Calibri,Calibri_MSFontService,sans-serif" font-weight="400" font-size="62" transform="matrix(1 0 0 1 2050.71 1565)">OFFLINE Perception &amp; Localization</text><path d="M2249.15 545.997 2249.34 616.707 2247.05 616.714 2246.85 546.003ZM2261.94 612.089 2248.26 639.627 2234.44 612.166Z" fill="#C81919"/><path d="M2804.15 552 2804.16 616.665 2801.87 616.665 2801.85 552ZM2816.77 612.078 2803.02 639.582 2789.27 612.085Z" fill="#C81919"/><path d="M2527.15 550 2527.15 612.538 2524.85 612.538 2524.85 550ZM2539.75 607.955 2526 635.455 2512.25 607.955Z" fill="#C81919"/><path d="M2524.15 724.995 2524.58 819.136 2522.29 819.146 2521.85 725.005ZM2537.16 814.494 2523.54 842.058 2509.66 814.621Z" fill="#C81919"/><path d="M1.14583-0.000424979 1.18208 97.7401-1.10958 97.7409-1.14583 0.000424979ZM13.7845 93.1521 0.0447507 120.657-13.7154 93.1623Z" fill="#C81919" transform="matrix(-1 0 0 1 2803.04 722)"/><path d="M3083.15 724.989 3084.02 819.467 3081.72 819.488 3080.85 725.01ZM3096.58 814.768 3083.08 842.393 3069.08 815.021Z" fill="#C81919"/><path d="M2249.15 721.981 2250.9 830.677 2248.61 830.714 2246.85 722.018ZM2263.43 825.891 2250.13 853.609 2235.94 826.335Z" fill="#C81919"/><path d="M1.14583-0.000497338 1.1893 100.141-1.10237 100.142-1.14583 0.000497338ZM13.7915 95.5518 0.0534121 123.058-13.7085 95.5638Z" fill="#C81919" transform="matrix(-1 0 0 1 1955.05 719)"/><path d="M3084.15 546 3084.15 614.446 3081.85 614.446 3081.85 546ZM3096.75 609.863 3083 637.363 3069.25 609.863Z" fill="#C81919"/><path d="M1.14583-7.69444e-05 1.15043 68.4464-1.14124 68.4466-1.14583 7.69444e-05ZM13.7543 63.8622 0.00613517 91.3632-13.7457 63.8641Z" fill="#C81919" transform="matrix(-1 0 0 1 1955.01 546)"/><rect x="2115.5" y="640.5" width="265" height="82.0002" stroke="#530505" stroke-width="4.58333" stroke-miterlimit="8" fill="#C81919"/><text fill="#FFFFFF" font-family="Calibri,Calibri_MSFontService,sans-serif" font-weight="400" font-size="32" transform="matrix(1 0 0 1 2162.04 692)">zed_wrapper</text><rect x="1823.5" y="638.5" width="265" height="81.0001" stroke="#530505" stroke-width="4.58333" stroke-miterlimit="8" fill="#C81919"/><text fill="#FFFFFF" font-family="Calibri,Calibri_MSFontService,sans-serif" font-weight="400" font-size="32" transform="matrix(1 0 0 1 1874.72 689)">ublox_dgnss</text><text font-family="Calibri,Calibri_MSFontService,sans-serif" font-weight="400" font-size="41" transform="matrix(1 0 0 1 1698.84 785)">ros2 topic</text><path d="M1817.5 857.167C1817.5 849.067 1824.07 842.5 1832.17 842.5L3132.83 842.5C3140.93 842.5 3147.5 849.067 3147.5 857.167L3147.5 915.833C3147.5 923.933 3140.93 930.5 3132.83 930.5L1832.17 930.5C1824.07 930.5 1817.5 923.933 1817.5 915.833Z" stroke="#530505" stroke-width="4.58333" stroke-miterlimit="8" fill="#C81919" fill-rule="evenodd"/><text fill="#FFFFFF" font-family="Calibri,Calibri_MSFontService,sans-serif" font-weight="400" font-size="62" transform="matrix(1 0 0 1 2284.07 907)">ros2bag_record</text><path d="M2483.15 930 2483.15 969.035 2480.85 969.035 2480.85 930ZM2495.75 964.452 2482 991.952 2468.25 964.452Z" fill="#C81919"/><text font-family="Calibri,Calibri_MSFontService,sans-serif" font-weight="400" font-size="41" transform="matrix(1 0 0 1 2527.95 969)">.db3</text><rect x="1839.5" y="1122.5" width="1301" height="275" stroke="#530505" stroke-width="4.58333" stroke-miterlimit="8" fill="#C81919"/><rect x="2440.5" y="1211.5" width="672" height="162" stroke="#530505" stroke-width="4.58333" stroke-miterlimit="8" fill="#C81919"/><text fill="#FFFFFF" font-family="Calibri,Calibri_MSFontService,sans-serif" font-weight="400" font-size="46" transform="matrix(1 0 0 1 2672.67 1308)">can_parser</text><rect x="1854.5" y="1210.5" width="258" height="161" stroke="#530505" stroke-width="4.58333" stroke-miterlimit="8" fill="#C81919"/><text fill="#FFFFFF" font-family="Calibri,Calibri_MSFontService,sans-serif" font-weight="400" font-size="46" transform="matrix(1 0 0 1 1931.29 1279)">gnss</text><text fill="#FFFFFF" font-family="Calibri,Calibri_MSFontService,sans-serif" font-weight="400" font-size="46" transform="matrix(1 0 0 1 2012.64 1279)">_</text><text fill="#FFFFFF" font-family="Calibri,Calibri_MSFontService,sans-serif" font-weight="400" font-size="46" transform="matrix(1 0 0 1 1937.89 1334)">rules</text><rect x="2140.5" y="1211.5" width="258" height="162" stroke="#530505" stroke-width="4.58333" stroke-miterlimit="8" fill="#C81919"/><text fill="#FFFFFF" font-family="Calibri,Calibri_MSFontService,sans-serif" font-weight="400" font-size="46" transform="matrix(1 0 0 1 2188.29 1280)">camera_</text><text fill="#FFFFFF" font-family="Calibri,Calibri_MSFontService,sans-serif" font-weight="400" font-size="46" transform="matrix(1 0 0 1 2223.54 1335)">rules</text><text fill="#FFFFFF" font-family="Calibri,Calibri_MSFontService,sans-serif" font-weight="400" font-size="46" transform="matrix(1 0 0 1 2380.73 1179)">bag_reader</text><path d="M2483.15 1454 2483.15 1483.83 2480.85 1483.83 2480.85 1454ZM2495.75 1479.25 2482 1506.75 2468.25 1479.25Z" fill="#C81919"/><text font-family="Calibri,Calibri_MSFontService,sans-serif" font-weight="400" font-size="41" transform="matrix(1 0 0 1 2532.49 1496)">.csv</text><text fill="#FFFFFF" font-family="Calibri,Calibri_MSFontService,sans-serif" font-weight="400" font-size="46" transform="matrix(1 0 0 1 2370.14 1078)">data_export</text><g><g><g><path d="M3020.8 1197.73 3020.8 1133.27 3044.5 1133.27 3044.5 1153.18 3068.2 1153.18 3068.2 1197.73 3020.8 1197.73ZM3050.19 1135.64 3062.04 1147.49 3050.19 1147.49 3050.19 1135.64ZM3050.19 1127.58 3015.11 1127.58 3015.11 1203.42 3073.89 1203.42 3073.89 1148.44 3050.19 1127.58Z"/><path d="M3026.49 1162.66 3062.51 1162.66 3062.51 1166.45 3026.49 1166.45Z"/><path d="M3026.49 1155.07 3038.81 1155.07 3038.81 1158.86 3026.49 1158.86Z"/><path d="M3026.49 1170.24 3062.51 1170.24 3062.51 1174.03 3026.49 1174.03Z"/><path d="M3026.49 1177.82 3062.51 1177.82 3062.51 1181.61 3026.49 1181.61Z"/><path d="M3026.49 1185.41 3062.51 1185.41 3062.51 1189.2 3026.49 1189.2Z"/></g></g></g><g><g><g><path d="M21.802 77.7289 21.802 13.2708 45.4999 13.2708 45.4999 33.177 69.1977 33.177 69.1977 77.7289 21.802 77.7289ZM51.1874 15.6406 63.0363 27.4895 51.1874 27.4895 51.1874 15.6406ZM51.1874 7.58331 16.1145 7.58331 16.1145 83.4164 74.8852 83.4164 74.8852 28.4374 51.1874 7.58331Z" transform="matrix(1 0 0 1 2999 841)"/><path d="M27.4895 42.6561 63.5102 42.6561 63.5102 46.4478 27.4895 46.4478Z" transform="matrix(1 0 0 1 2999 841)"/><path d="M27.4895 35.0728 39.8124 35.0728 39.8124 38.8645 27.4895 38.8645Z" transform="matrix(1 0 0 1 2999 841)"/><path d="M27.4895 50.2394 63.5102 50.2394 63.5102 54.0311 27.4895 54.0311Z" transform="matrix(1 0 0 1 2999 841)"/><path d="M27.4895 57.8228 63.5102 57.8228 63.5102 61.6144 27.4895 61.6144Z" transform="matrix(1 0 0 1 2999 841)"/><path d="M27.4895 65.4061 63.5102 65.4061 63.5102 69.1977 27.4895 69.1977Z" transform="matrix(1 0 0 1 2999 841)"/></g></g></g><rect x="1260.5" y="1292.5" width="234" height="55" stroke="#530505" stroke-width="4.58333" stroke-miterlimit="8" fill="#C81919"/><text fill="#FFFFFF" font-family="Calibri,Calibri_MSFontService,sans-serif" font-weight="400" font-size="41" transform="matrix(1 0 0 1 1296.07 1334)">can_rules</text><rect x="2881.5" y="1317.5" width="235" height="54" stroke="#530505" stroke-width="4.58333" stroke-miterlimit="8" fill="#C81919"/><text fill="#FFFFFF" font-family="Calibri,Calibri_MSFontService,sans-serif" font-weight="400" font-size="41" transform="matrix(1 0 0 1 2917.64 1359)">can_rules</text></g></svg>